<?xml version="1.0" encoding="UTF-8"?>
<svg xmlns="http://www.w3.org/2000/svg" version="1.2" viewBox="0 0 72 70.25">
  <path d="M7.12,35.13C3.34,43.58.87,52.75,0,62.38c10.95,5.05,23.15,7.88,36,7.88-12.51-8.86-22.55-20.98-28.88-35.13Z"/>
  <path d="M36,70.25c12.85,0,25.05-2.82,36-7.88-.87-9.63-3.34-18.8-7.12-27.25-6.33,14.14-16.37,26.26-28.88,35.13Z"/>
  <path d="M64.88,35.13c3.78-8.45,6.24-17.62,7.12-27.25C61.05,2.82,48.85,0,36,0c12.51,8.86,22.55,20.98,28.88,35.13Z"/>
  <path d="M36,0C23.15,0,10.95,2.82,0,7.88c.87,9.63,3.34,18.8,7.12,27.25C13.45,20.98,23.49,8.86,36,0Z"/>
  <style>@media(prefers-color-scheme:dark){*{fill:#fff}}</style>
</svg>
